<svg width="9755" height="4181" viewBox="0 0 9755 4181" fill="none" xmlns="http://www.w3.org/2000/svg">
<path d="M1420.98 3770.24C1364.58 3763.88 1309.34 3758.54 1254.43 3750.83C1212.85 3744.99 1171.39 3737.47 1130.42 3728.25C1083.6 3717.72 1036.93 3706 991.048 3692.02C941.686 3676.98 892.212 3661.3 844.784 3641.18C791.099 3618.42 738.788 3591.98 687.45 3564.23C640.142 3538.67 593.984 3510.66 549.1 3481.03C519.224 3461.31 491.811 3437.63 464.492 3414.32C429.031 3384.06 393.274 3353.9 360.33 3321C313.618 3274.36 271.375 3223.69 230.868 3171.36C178.816 3104.11 136.732 3031.21 102.161 2954.13C82.6919 2910.72 67.3755 2865.17 53.5783 2819.56C39.1127 2771.74 26.7089 2723.08 17.1533 2674.06C9.56665 2635.14 7.04968 2595.17 3.32689 2555.57C-2.63164 2492.19 0.331171 2428.7 5.047 2365.46C10.6542 2290.27 21.7658 2215.73 40.2314 2142.47C50.6133 2101.29 60.0719 2059.8 72.424 2019.2C89.057 1964.53 112.096 1912.25 139.911 1862.32C164.715 1817.79 166.441 1770.2 162.647 1721.21C160.538 1693.98 159.323 1666.61 159.283 1639.3C159.202 1585.06 159.01 1530.78 161.093 1476.6C163.389 1416.92 167.143 1357.25 172.181 1297.74C177.608 1233.64 184.454 1169.63 192.153 1105.76C201.061 1031.85 210.123 957.905 221.873 884.417C230.542 830.196 241.937 776.257 255.274 722.982C266.337 678.788 284.338 636.48 312.479 600.159C340.11 564.496 375.225 557.064 417.478 580.449C453.879 600.594 488.172 626.085 519.387 653.739C582.315 709.49 644.123 766.724 703.326 826.388C749.574 872.997 791.781 923.692 834.688 973.515C871.515 1016.28 907.064 1060.16 942.646 1103.97C963.975 1130.24 984.645 1157.06 1004.93 1184.14C1020.97 1205.55 1043.02 1205.51 1066.06 1203.3C1070.16 1202.91 1074.2 1201.71 1078.31 1201.41C1140.99 1196.71 1203.66 1191.79 1266.37 1187.58C1302.84 1185.14 1339.38 1183.45 1375.91 1182.17C1417.56 1180.71 1459.26 1178.92 1500.91 1179.41C1550.92 1180 1601 1181.54 1650.88 1185.07C1699.28 1188.5 1747.62 1193.89 1795.72 1200.37C1863.38 1209.49 1930.16 1223.9 1995.36 1244.02C2044.33 1259.14 2092.87 1276.28 2140.18 1295.94C2192.89 1317.84 2244.6 1342.41 2295.54 1368.18C2324.18 1382.67 2350.72 1401.46 2377.62 1419.2C2404.51 1436.94 2432.28 1453.88 2456.8 1474.55C2503.53 1513.94 2550.18 1553.8 2593.17 1597.12C2630.67 1634.9 2664.81 1676.38 2697.25 1718.67C2726.71 1757.09 2752.16 1798.61 2778.82 1839.13C2793.45 1861.37 2807.01 1884.31 2820.89 1907.04C2838.18 1935.37 2851.45 1965.32 2856.41 1998.45C2858.73 2013.89 2861.03 2029.34 2863.02 2044.82C2865.28 2062.51 2855.7 2075.45 2835.31 2075.33C2697.39 2074.52 2559.45 2075.57 2421.55 2073.7C2396.43 2073.36 2368.18 2075.7 2346.18 2058.04C2330.43 2045.4 2316.31 2030.73 2301.68 2016.75C2273.75 1990.08 2246.52 1962.64 2217.96 1936.67C2192.16 1913.2 2164.8 1891.45 2138.44 1868.6C2104.52 1839.2 2067.96 1813.65 2030.51 1788.87C1986.79 1759.95 1940 1737.49 1891.35 1720.06C1852.35 1706.08 1810.71 1699.11 1769.9 1690.67C1713.04 1678.92 1655.35 1682.95 1598.08 1686.19C1569.74 1687.79 1541.63 1695.04 1513.63 1700.8C1487.62 1706.15 1461.6 1711.9 1436.14 1719.37C1416.04 1725.27 1396.3 1732.98 1377.27 1741.77C1337.49 1760.13 1298.6 1780.35 1263.47 1806.85C1217.42 1841.6 1170.19 1875.01 1126.25 1912.28C1066.01 1963.39 1007.69 2016.84 949.875 2070.71C911.405 2106.55 874.374 2144.06 838.35 2182.37C811.542 2210.88 790.206 2244.17 779.961 2282.12C771.996 2311.62 769.443 2341.82 776.391 2373.45C788.388 2428.07 817.736 2471.96 855.932 2509.58C914.529 2567.29 975.814 2622.28 1036.49 2677.86C1061.41 2700.69 1087.27 2722.58 1113.53 2743.88C1135.8 2761.95 1159.23 2778.61 1182.2 2795.81C1212.13 2818.22 1241.82 2840.95 1272.15 2862.82C1324.61 2900.65 1379.88 2933.77 1438.93 2960.43C1505.28 2990.39 1573.58 3013.7 1645.28 3027.81C1708.91 3040.33 1773.02 3045.77 1837.31 3041.98C1878.86 3039.54 1920.41 3031.39 1961.13 3022.16C1999.32 3013.52 2036.82 3001.27 2073.89 2988.46C2117.05 2973.54 2159.18 2955.64 2202.26 2940.44C2215.54 2935.76 2230.43 2934.06 2244.63 2933.83C2285.45 2933.15 2326.3 2933.91 2367.13 2934.12C2411.24 2934.34 2455.34 2934.38 2499.45 2934.87C2607.55 2936.05 2715.66 2937.63 2823.77 2938.54C2840.89 2938.68 2859.64 2950.65 2855.76 2971.16C2850.81 2997.31 2847.23 3024.31 2837.7 3048.86C2822.09 3089.05 2804 3128.57 2783.47 3166.49C2766.02 3198.71 2745.01 3229.28 2723.11 3258.74C2696.21 3294.91 2667.76 3330.06 2638.05 3363.95C2617.95 3386.87 2594.42 3406.77 2572.59 3428.18C2529.87 3470.07 2483.14 3507.34 2432.56 3538.74C2376.19 3573.74 2318.37 3606.93 2258.84 3636.14C2214.43 3657.93 2166.73 3673.36 2119.72 3689.36C2073.09 3705.23 2025.69 3718.98 1978.23 3732.23C1957.54 3738 1935.89 3740.53 1914.59 3743.93C1878.72 3749.67 1842.88 3755.72 1806.84 3760.13C1777.48 3763.73 1747.89 3766.14 1718.34 3767.27C1650.72 3769.85 1583.06 3771.9 1515.41 3773C1484.39 3773.5 1453.32 3771.25 1420.98 3770.24Z" fill="url(#paint0_linear_1486_515)"/>
<path d="M2458.54 612.961C2490.26 591.24 2522.65 575.285 2561.66 576.329C2595.08 577.224 2616.86 602.073 2627.4 628.381C2636.78 651.785 2644.45 675.896 2652.25 699.901C2657.55 716.205 2662.02 732.792 2666.38 749.381C2671.79 769.996 2676.85 790.705 2681.74 811.448C2684.27 822.151 2686.65 832.94 2688.15 843.82C2692.54 875.671 2696.92 907.536 2700.43 939.491C2706.48 994.465 2713.1 1049.42 2717.21 1104.55C2722.16 1171.01 2724.89 1237.63 2728.31 1304.19C2730.14 1339.8 2732.13 1375.42 2732.56 1411.05C2732.77 1427.84 2729.49 1444.68 2728.29 1456.59C2703.26 1433.68 2677.54 1408.61 2650.18 1385.48C2613.03 1354.1 2575.33 1323.26 2536.57 1293.9C2485.37 1255.11 2428.88 1224.68 2371.58 1196.09C2318.32 1169.51 2264.69 1143.63 2207.61 1125.65C2162.58 1111.47 2117.95 1096 2073.18 1080.99C2052.44 1074.04 2049.36 1066.5 2062.14 1048.38C2074.86 1030.35 2089.68 1013.81 2102.9 996.103C2117.14 977.019 2129.94 956.841 2144.55 938.05C2162.32 915.175 2180.86 892.843 2199.89 871.002C2232.75 833.305 2264.75 794.672 2299.85 759.151C2350.17 708.24 2397.24 653.543 2458.54 612.961Z" fill="#444444"/>
<path d="M1855.14 2593.05C1855.14 2593.05 1810.02 2660.92 1766.67 2668.58C1557.55 2705.53 1187.01 2426.04 1293.3 2242.19C1411.08 2038.48 1777.17 2001.7 1930.47 2162.95C2036.6 2272.27 1855.14 2593.05 1855.14 2593.05Z" fill="#474747"/>
<path d="M4566 3210C4412 3210 4273 3177 4149 3111C4027 3045 3930 2948 3858 2820C3788 2690 3753 2529 3753 2337C3753 2143 3788 1981 3858 1851C3928 1721 4025 1624 4149 1560C4275 1494 4418 1461 4578 1461C4710 1461 4827 1485 4929 1533C5031 1581 5116 1651 5184 1743C5254 1833 5301 1944 5325 2076H5184C5164 1970 5125 1881 5067 1809C5011 1735 4941 1680 4857 1644C4775 1606 4682 1587 4578 1587C4366 1587 4198 1651 4074 1779C3952 1907 3891 2091 3891 2331C3891 2579 3951 2767 4071 2895C4193 3021 4358 3084 4566 3084C4680 3084 4781 3065 4869 3027C4957 2989 5028 2934 5082 2862C5138 2790 5175 2702 5193 2598H5340C5316 2728 5270 2839 5202 2931C5134 3021 5046 3090 4938 3138C4832 3186 4708 3210 4566 3210ZM5609.32 3180V1491H5747.32V3180H5609.32ZM6561.35 3210C6435.35 3210 6329.35 3184 6243.35 3132C6159.35 3078 6096.35 3004 6054.35 2910C6012.35 2816 5991.35 2709 5991.35 2589C5991.35 2467 6012.35 2359 6054.35 2265C6096.35 2169 6159.35 2095 6243.35 2043C6329.35 1989 6435.35 1962 6561.35 1962C6745.35 1962 6885.35 2020 6981.35 2136C7079.35 2250 7128.35 2401 7128.35 2589C7128.35 2705 7108.35 2811 7068.35 2907C7028.35 3001 6966.35 3075 6882.35 3129C6798.35 3183 6691.35 3210 6561.35 3210ZM6561.35 3087C6673.35 3087 6760.35 3062 6822.35 3012C6884.35 2962 6927.35 2899 6951.35 2823C6977.35 2745 6990.35 2666 6990.35 2586C6990.35 2504 6977.35 2425 6951.35 2349C6927.35 2271 6884.35 2207 6822.35 2157C6760.35 2107 6673.35 2082 6561.35 2082C6451.35 2082 6364.35 2107 6300.35 2157C6236.35 2207 6191.35 2271 6165.35 2349C6141.35 2425 6129.35 2504 6129.35 2586C6129.35 2666 6141.35 2745 6165.35 2823C6191.35 2899 6236.35 2962 6300.35 3012C6364.35 3062 6451.35 3087 6561.35 3087ZM7806.94 3207C7694.94 3207 7601.94 3179 7527.94 3123C7453.94 3067 7398.94 2992 7362.94 2898C7326.94 2802 7308.94 2696 7308.94 2580C7308.94 2458 7326.94 2350 7362.94 2256C7400.94 2162 7456.94 2088 7530.94 2034C7606.94 1978 7698.94 1950 7806.94 1950C7866.94 1950 7919.94 1958 7965.94 1974C8011.94 1990 8052.94 2011 8088.94 2037C8124.94 2063 8154.94 2093 8178.94 2127C8204.94 2159 8224.94 2194 8238.94 2232H8241.94V1962H8382.94V3180H8268.94L8244.94 2928H8238.94C8222.94 2964 8201.94 2999 8175.94 3033C8151.94 3065 8121.94 3095 8085.94 3123C8049.94 3149 8008.94 3169 7962.94 3183C7916.94 3199 7864.94 3207 7806.94 3207ZM7857.94 3081C7943.94 3081 8014.94 3061 8070.94 3021C8128.94 2981 8171.94 2924 8199.94 2850C8227.94 2774 8241.94 2685 8241.94 2583C8241.94 2471 8226.94 2379 8196.94 2307C8166.94 2233 8122.94 2177 8064.94 2139C8008.94 2101 7939.94 2082 7857.94 2082C7763.94 2082 7685.94 2104 7623.94 2148C7563.94 2192 7518.94 2251 7488.94 2325C7460.94 2399 7446.94 2484 7446.94 2580C7446.94 2678 7461.94 2765 7491.94 2841C7521.94 2917 7566.94 2976 7626.94 3018C7688.94 3060 7765.94 3081 7857.94 3081ZM8791.2 3183H8653.2V1491H8791.2V3183ZM9124.2 2451L9718.2 3183H9547.2L9025.2 2544L9124.2 2451ZM8770.2 2868V2697L9526.2 1962H9709.2L8770.2 2868Z" fill="#202020"/>
<defs>
<linearGradient id="paint0_linear_1486_515" x1="340.941" y1="363.5" x2="2454.44" y2="3735.5" gradientUnits="userSpaceOnUse">
<stop/>
<stop offset="1" stop-color="#9E9E9E"/>
</linearGradient>
</defs>
</svg>
