<svg width="1000" height="1000" viewBox="0 0 1000 1000" fill="none" xmlns="http://www.w3.org/2000/svg">
<rect width="1000" height="1000" fill="#161616"/>
<path d="M497.239 863.662C484.41 862.215 471.844 861.001 459.353 859.247C449.894 857.919 440.462 856.207 431.143 854.111C420.494 851.716 409.878 849.049 399.44 845.869C388.211 842.448 376.957 838.88 366.168 834.305C353.956 829.126 342.057 823.112 330.379 816.8C319.617 810.984 309.117 804.614 298.907 797.874C292.111 793.387 285.875 788 279.661 782.698C271.594 775.815 263.46 768.954 255.966 761.471C245.341 750.862 235.731 739.334 226.517 727.43C214.676 712.133 205.103 695.551 197.239 678.016C192.81 668.141 189.326 657.78 186.188 647.405C182.897 636.527 180.076 625.459 177.902 614.308C176.176 605.454 175.604 596.363 174.757 587.354C173.401 572.936 174.075 558.495 175.148 544.109C176.424 527.003 178.951 510.047 183.152 493.384C185.513 484.015 187.665 474.577 190.475 465.342C194.258 452.906 199.499 441.014 205.826 429.655C211.469 419.526 211.861 408.699 210.998 397.558C210.518 391.363 210.242 385.137 210.233 378.924C210.215 366.586 210.171 354.237 210.645 341.912C211.167 328.337 212.021 314.763 213.167 301.226C214.402 286.645 215.959 272.085 217.71 257.556C219.737 240.744 221.798 223.923 224.471 207.206C226.443 194.872 229.035 182.602 232.069 170.483C234.585 160.43 238.68 150.806 245.082 142.544C251.367 134.432 259.355 132.741 268.966 138.06C277.247 142.643 285.048 148.442 292.148 154.732C306.463 167.414 320.523 180.433 333.99 194.006C344.51 204.608 354.111 216.14 363.872 227.474C372.249 237.201 380.335 247.182 388.43 257.15C393.281 263.124 397.983 269.226 402.599 275.386C406.247 280.256 411.263 280.247 416.503 279.745C417.437 279.656 418.355 279.384 419.289 279.314C433.548 278.245 447.803 277.126 462.07 276.169C470.365 275.613 478.676 275.229 486.986 274.938C496.462 274.607 505.947 274.198 515.422 274.309C526.798 274.443 538.189 274.795 549.535 275.598C560.546 276.378 571.541 277.603 582.483 279.078C597.875 281.151 613.066 284.431 627.896 289.008C639.036 292.445 650.079 296.345 660.841 300.818C672.83 305.8 684.593 311.388 696.182 317.251C702.696 320.547 708.733 324.82 714.851 328.856C720.968 332.891 727.285 336.744 732.864 341.448C743.494 350.408 754.104 359.475 763.885 369.329C772.414 377.922 780.182 387.359 787.56 396.98C794.262 405.718 800.052 415.163 806.116 424.38C809.443 429.439 812.529 434.658 815.684 439.828C819.618 446.274 822.636 453.086 823.766 460.622C824.293 464.134 824.817 467.648 825.268 471.17C825.784 475.193 823.603 478.137 818.966 478.11C787.592 477.926 756.215 478.165 724.846 477.739C719.132 477.662 712.706 478.195 707.699 474.177C704.119 471.303 700.906 467.965 697.576 464.785C691.223 458.718 685.029 452.477 678.533 446.568C672.664 441.23 666.441 436.283 660.443 431.084C652.727 424.396 644.413 418.585 635.892 412.947C625.948 406.368 615.303 401.259 604.238 397.294C595.366 394.115 585.893 392.528 576.61 390.61C563.677 387.937 550.553 388.854 537.526 389.59C531.078 389.954 524.684 391.604 518.315 392.914C512.398 394.131 506.479 395.439 500.688 397.139C496.116 398.481 491.625 400.234 487.295 402.233C478.248 406.409 469.4 411.009 461.411 417.038C450.935 424.943 440.19 432.542 430.196 441.021C416.491 452.646 403.226 464.805 390.074 477.059C381.323 485.213 372.899 493.745 364.705 502.46C358.606 508.946 353.753 516.517 351.423 525.149C349.611 531.86 349.03 538.73 350.61 545.926C353.34 558.351 360.016 568.335 368.704 576.892C382.034 590.019 395.974 602.53 409.776 615.171C415.447 620.365 421.328 625.343 427.301 630.189C432.367 634.3 437.696 638.089 442.923 642.002C449.731 647.099 456.486 652.271 463.383 657.245C475.317 665.85 487.89 673.384 501.323 679.449C516.416 686.264 531.952 691.567 548.262 694.776C562.737 697.625 577.319 698.862 591.945 698.001C601.396 697.445 610.847 695.591 620.111 693.493C628.797 691.525 637.329 688.74 645.76 685.826C655.58 682.432 665.163 678.36 674.962 674.903C677.984 673.837 681.37 673.452 684.6 673.398C693.886 673.244 703.177 673.416 712.467 673.464C722.499 673.515 732.533 673.525 742.565 673.634C767.156 673.903 791.747 674.264 816.34 674.469C820.234 674.502 824.501 677.225 823.617 681.891C822.49 687.839 821.678 693.981 819.509 699.565C815.958 708.709 811.844 717.698 807.173 726.322C803.204 733.652 798.425 740.606 793.442 747.308C787.324 755.536 780.852 763.531 774.093 771.24C769.521 776.454 764.17 780.982 759.203 785.852C749.486 795.38 738.854 803.858 727.349 811.001C714.526 818.963 701.374 826.513 687.832 833.157C677.731 838.113 666.879 841.624 656.187 845.264C645.579 848.874 634.797 852.003 624 855.015C619.293 856.329 614.37 856.903 609.523 857.678C601.364 858.982 593.21 860.36 585.013 861.363C578.335 862.18 571.604 862.729 564.881 862.986C549.499 863.573 534.109 864.04 518.719 864.29C511.662 864.404 504.596 863.891 497.239 863.662Z" fill="url(#paint0_linear_1157_514)"/>
<path d="M733.262 145.456C740.477 140.515 747.846 136.886 756.72 137.123C764.321 137.327 769.275 142.979 771.673 148.964C773.806 154.288 775.552 159.772 777.326 165.233C778.531 168.942 779.55 172.715 780.54 176.489C781.77 181.178 782.922 185.889 784.035 190.607C784.61 193.042 785.152 195.496 785.493 197.971C786.49 205.217 787.487 212.465 788.286 219.734C789.661 232.239 791.167 244.74 792.102 257.282C793.23 272.398 793.851 287.554 794.628 302.695C795.044 310.794 795.496 318.897 795.596 327.003C795.643 330.822 794.898 334.652 794.624 337.361C788.93 332.151 783.08 326.447 776.854 321.187C768.404 314.047 759.828 307.033 751.012 300.354C739.366 291.531 726.514 284.609 713.481 278.104C701.366 272.058 689.164 266.17 676.181 262.081C665.938 258.855 655.786 255.336 645.603 251.922C640.883 250.34 640.184 248.626 643.09 244.504C645.984 240.402 649.356 236.64 652.362 232.612C655.602 228.271 658.514 223.681 661.836 219.406C665.88 214.203 670.095 209.123 674.426 204.154C681.901 195.579 689.178 186.791 697.164 178.711C708.611 167.13 719.317 154.688 733.262 145.456Z" fill="#D3D3D3"/>
<path d="M596.001 595.88C596.001 595.88 585.736 611.317 575.876 613.06C528.305 621.466 444.015 557.888 468.195 516.067C494.987 469.728 578.263 461.361 613.135 498.042C637.278 522.911 596.001 595.88 596.001 595.88Z" fill="#A9A7AC"/>
<defs>
<linearGradient id="paint0_linear_1157_514" x1="251.556" y1="88.7097" x2="732.327" y2="855.759" gradientUnits="userSpaceOnUse">
<stop stop-color="white"/>
<stop offset="1" stop-color="#9E9E9E"/>
</linearGradient>
</defs>
</svg>
