<svg width="32" height="32" viewBox="0 0 32 32" fill="none" xmlns="http://www.w3.org/2000/svg">
<g clip-path="url(#clip0_1088_4020)">
<path d="M26 0H6C2.68629 0 0 2.68629 0 6V26C0 29.3137 2.68629 32 6 32H26C29.3137 32 32 29.3137 32 26V6C32 2.68629 29.3137 0 26 0Z" fill="#3D146E"/>
<path d="M13.9992 8.0002C14.4992 7.5002 15.1992 7.2002 15.9992 7.2002C16.7992 7.2002 17.4992 7.5002 17.9992 8.0002C18.4992 8.5002 18.7992 9.2002 18.7992 10.0002C18.7992 10.8002 18.4992 11.5002 17.9992 12.0002L15.9992 14.0002L13.9992 12.0002C13.4992 11.5002 13.1992 10.8002 13.1992 10.0002C13.1992 9.2002 13.4992 8.5002 13.9992 8.0002Z" fill="#3D146E"/>
<path d="M15.9253 27.3742C15.5314 27.3297 15.1455 27.2925 14.762 27.2386C14.4715 27.1978 14.1819 27.1453 13.8958 27.0809C13.5688 27.0073 13.2428 26.9255 12.9223 26.8278C12.5775 26.7228 12.232 26.6132 11.9007 26.4727C11.5257 26.3137 11.1603 26.129 10.8017 25.9352C10.4713 25.7567 10.1489 25.561 9.83538 25.3541C9.6267 25.2163 9.43523 25.0509 9.2444 24.8881C8.99671 24.6767 8.74696 24.4661 8.51685 24.2363C8.19058 23.9106 7.89551 23.5566 7.61258 23.1911C7.24901 22.7213 6.95505 22.2122 6.71358 21.6738C6.57759 21.3705 6.47061 21.0524 6.37424 20.7338C6.2732 20.3998 6.18656 20.0599 6.11981 19.7175C6.06682 19.4457 6.04924 19.1665 6.02324 18.8899C5.98162 18.4472 6.00231 18.0038 6.03525 17.562C6.07442 17.0368 6.15203 16.5161 6.28101 16.0045C6.35353 15.7168 6.41959 15.427 6.50587 15.1434C6.62205 14.7616 6.78297 14.3964 6.97726 14.0476C7.15051 13.7366 7.16257 13.4042 7.13606 13.062C7.12133 12.8718 7.11285 12.6807 7.11256 12.4899C7.112 12.111 7.11066 11.7319 7.12521 11.3534C7.14124 10.9366 7.16747 10.5198 7.20266 10.1041C7.24056 9.65638 7.28838 9.2093 7.34216 8.76317C7.40438 8.24694 7.46767 7.73045 7.54975 7.21715C7.6103 6.83842 7.68989 6.46166 7.78305 6.08955C7.86032 5.78086 7.98606 5.48534 8.18262 5.23165C8.37561 4.98255 8.62089 4.93063 8.91602 5.09397C9.17027 5.23469 9.40981 5.41273 9.62783 5.60589C10.0674 5.9953 10.4991 6.39507 10.9126 6.81182C11.2357 7.13738 11.5305 7.49147 11.8302 7.83948C12.0874 8.13818 12.3357 8.44465 12.5842 8.75071C12.7332 8.93417 12.8776 9.12153 13.0193 9.31067C13.1313 9.4602 13.2854 9.45993 13.4463 9.44452C13.4749 9.44178 13.5031 9.43342 13.5318 9.43127C13.9696 9.39846 14.4074 9.3641 14.8454 9.33471C15.1001 9.31762 15.3553 9.30584 15.6105 9.29691C15.9014 9.28673 16.1927 9.27419 16.4836 9.27761C16.833 9.28171 17.1827 9.29251 17.5311 9.31719C17.8692 9.34113 18.2068 9.37875 18.5428 9.42402C19.0154 9.4877 19.4819 9.58841 19.9373 9.72894C20.2793 9.83449 20.6184 9.95424 20.9489 10.0916C21.317 10.2446 21.6782 10.4161 22.034 10.5962C22.2341 10.6974 22.4194 10.8286 22.6073 10.9525C22.7951 11.0764 22.9891 11.1947 23.1604 11.3391C23.4868 11.6143 23.8126 11.8927 24.1129 12.1953C24.3748 12.4591 24.6133 12.7489 24.8399 13.0443C25.0457 13.3126 25.2234 13.6026 25.4096 13.8857C25.5118 14.041 25.6065 14.2012 25.7034 14.36C25.8242 14.5579 25.9169 14.7671 25.9516 14.9985C25.9678 15.1063 25.9839 15.2142 25.9977 15.3224C26.0135 15.4459 25.9466 15.5363 25.8042 15.5355C24.8409 15.5298 23.8774 15.5372 22.9142 15.5241C22.7387 15.5217 22.5414 15.5381 22.3877 15.4147C22.2777 15.3265 22.1791 15.224 22.0768 15.1263C21.8818 14.94 21.6916 14.7484 21.4921 14.5669C21.3119 14.403 21.1208 14.2511 20.9366 14.0915C20.6997 13.8861 20.4444 13.7077 20.1828 13.5346C19.8774 13.3326 19.5506 13.1757 19.2108 13.0539C18.9384 12.9563 18.6475 12.9076 18.3625 12.8487C17.9653 12.7666 17.5624 12.7948 17.1624 12.8174C16.9644 12.8286 16.768 12.8792 16.5725 12.9194C16.3908 12.9568 16.209 12.997 16.0312 13.0492C15.8908 13.0904 15.7529 13.1442 15.62 13.2056C15.3422 13.3338 15.0705 13.4751 14.8252 13.6602C14.5035 13.9029 14.1736 14.1363 13.8667 14.3966C13.4459 14.7536 13.0386 15.1269 12.6347 15.5032C12.366 15.7536 12.1074 16.0155 11.8557 16.2832C11.6685 16.4823 11.5195 16.7148 11.4479 16.9798C11.3923 17.1859 11.3744 17.3969 11.423 17.6178C11.5068 17.9993 11.7118 18.3059 11.9786 18.5687C12.3878 18.9717 12.8159 19.3559 13.2397 19.744C13.4138 19.9035 13.5944 20.0564 13.7778 20.2052C13.9334 20.3314 14.097 20.4478 14.2575 20.5679C14.4665 20.7244 14.674 20.8832 14.8857 21.036C15.2522 21.3002 15.6383 21.5315 16.0507 21.7178C16.5142 21.927 16.9912 22.0898 17.492 22.1884C17.9365 22.2759 18.3843 22.3138 18.8333 22.2874C19.1236 22.2703 19.4137 22.2134 19.6982 22.149C19.9649 22.0886 20.2269 22.003 20.4858 21.9136C20.7873 21.8094 21.0816 21.6843 21.3825 21.5782C21.4752 21.5454 21.5792 21.5336 21.6784 21.532C21.9635 21.5272 22.2488 21.5325 22.5341 21.534C22.8421 21.5356 23.1502 21.5358 23.4582 21.5392C24.2134 21.5475 24.9684 21.5585 25.7236 21.5648C25.8432 21.5658 25.9742 21.6495 25.947 21.7927C25.9124 21.9754 25.8875 22.164 25.8209 22.3354C25.7118 22.6162 25.5855 22.8922 25.4421 23.157C25.3202 23.3821 25.1735 23.5956 25.0205 23.8014C24.8326 24.0541 24.6339 24.2996 24.4263 24.5363C24.286 24.6964 24.1217 24.8354 23.9691 24.9849C23.6708 25.2775 23.3443 25.5378 22.991 25.7572C22.5973 26.0016 22.1934 26.2335 21.7776 26.4375C21.4675 26.5897 21.1343 26.6975 20.8059 26.8092C20.4802 26.9201 20.1492 27.0162 19.8176 27.1087C19.6731 27.149 19.5219 27.1666 19.3731 27.1904C19.1226 27.2305 18.8722 27.2728 18.6205 27.3036C18.4154 27.3287 18.2088 27.3455 18.0023 27.3534C17.53 27.3714 17.0575 27.3858 16.5849 27.3935C16.3682 27.397 16.1512 27.3812 15.9253 27.3742Z" fill="url(#paint0_linear_1088_4020)"/>
<path d="M23.1735 5.32164C23.3951 5.16992 23.6213 5.05847 23.8938 5.06577C24.1272 5.07202 24.2793 5.24558 24.353 5.42934C24.4185 5.59282 24.4721 5.76123 24.5265 5.92889C24.5635 6.04278 24.5948 6.15863 24.6252 6.27451C24.663 6.4185 24.6984 6.56315 24.7325 6.70804C24.7502 6.78279 24.7668 6.85815 24.7773 6.93415C24.8079 7.15663 24.8385 7.3792 24.8631 7.6024C24.9053 7.98638 24.9515 8.37023 24.9803 8.75532C25.0149 9.2195 25.0339 9.68485 25.0578 10.1498C25.0706 10.3985 25.0845 10.6473 25.0875 10.8962C25.089 11.0135 25.0661 11.131 25.0577 11.2142C24.8828 11.0543 24.7032 10.8791 24.512 10.7176C24.2526 10.4984 23.9892 10.283 23.7185 10.0779C23.3609 9.80697 22.9663 9.59443 22.5661 9.3947C22.1941 9.20905 21.8195 9.02825 21.4208 8.9027C21.1063 8.80364 20.7946 8.69559 20.4819 8.59076C20.3369 8.54218 20.3155 8.48955 20.4047 8.36299C20.4936 8.23701 20.5971 8.1215 20.6894 7.99782C20.7889 7.86452 20.8783 7.72358 20.9803 7.59233C21.1045 7.43255 21.2339 7.27657 21.3669 7.12401C21.5964 6.8607 21.8199 6.59086 22.0651 6.34275C22.4166 5.98714 22.7453 5.6051 23.1735 5.32164Z" fill="#D3D3D3"/>
<path d="M18.9595 19.1518C18.9595 19.1518 18.6443 19.6258 18.3415 19.6793C16.8808 19.9374 14.2927 17.9852 15.0351 16.7011C15.8578 15.2782 18.4148 15.0213 19.4856 16.1476C20.227 16.9112 18.9595 19.1518 18.9595 19.1518Z" fill="#A9A7AC"/>
</g>
<defs>
<linearGradient id="paint0_linear_1088_4020" x1="8.38142" y1="3.57862" x2="23.1439" y2="27.1315" gradientUnits="userSpaceOnUse">
<stop stop-color="white"/>
<stop offset="1" stop-color="#9E9E9E"/>
</linearGradient>
<clipPath id="clip0_1088_4020">
<rect width="32" height="32" fill="white"/>
</clipPath>
</defs>
</svg>
