<svg width="1000" height="1000" viewBox="0 0 1000 1000" fill="none" xmlns="http://www.w3.org/2000/svg">
<rect width="1000" height="1000" fill="#161616"/>
<path d="M498.088 785.779C488.003 784.641 478.126 783.687 468.307 782.308C460.871 781.264 453.458 779.919 446.133 778.271C437.761 776.388 429.416 774.292 421.211 771.792C412.385 769.103 403.538 766.298 395.058 762.702C385.458 758.631 376.104 753.904 366.924 748.942C358.465 744.371 350.211 739.363 342.186 734.065C336.843 730.538 331.942 726.303 327.057 722.135C320.716 716.725 314.322 711.331 308.431 705.45C300.079 697.11 292.525 688.048 285.282 678.691C275.975 666.666 268.449 653.632 262.268 639.848C258.786 632.086 256.048 623.941 253.58 615.786C250.994 607.235 248.776 598.535 247.067 589.769C245.711 582.81 245.261 575.663 244.595 568.582C243.529 557.248 244.059 545.896 244.902 534.588C245.905 521.142 247.892 507.813 251.194 494.714C253.05 487.35 254.742 479.931 256.95 472.671C259.924 462.896 264.044 453.548 269.018 444.619C273.453 436.657 273.762 428.147 273.083 419.388C272.706 414.519 272.489 409.625 272.482 404.741C272.467 395.043 272.433 385.336 272.805 375.647C273.216 364.976 273.887 354.306 274.788 343.665C275.758 332.203 276.983 320.758 278.359 309.337C279.952 296.122 281.572 282.899 283.673 269.759C285.224 260.063 287.261 250.419 289.646 240.892C291.624 232.99 294.843 225.425 299.875 218.93C304.816 212.553 311.095 211.224 318.65 215.406C325.159 219.008 331.291 223.566 336.873 228.511C348.125 238.48 359.177 248.714 369.763 259.383C378.033 267.717 385.58 276.782 393.252 285.691C399.837 293.337 406.194 301.183 412.556 309.018C416.37 313.715 420.066 318.511 423.694 323.353C426.563 327.181 430.505 327.174 434.624 326.78C435.358 326.709 436.08 326.495 436.814 326.44C448.022 325.6 459.228 324.721 470.443 323.969C476.964 323.531 483.496 323.23 490.029 323.001C497.477 322.74 504.933 322.419 512.381 322.507C521.324 322.612 530.278 322.888 539.197 323.52C547.852 324.133 556.495 325.096 565.096 326.255C577.195 327.885 589.136 330.463 600.794 334.061C609.55 336.763 618.231 339.828 626.691 343.344C636.115 347.261 645.361 351.653 654.471 356.262C659.592 358.853 664.337 362.212 669.146 365.384C673.955 368.556 678.92 371.585 683.306 375.282C691.661 382.325 700.002 389.453 707.69 397.199C714.395 403.954 720.501 411.372 726.301 418.934C731.569 425.803 736.12 433.227 740.886 440.473C743.502 444.449 745.928 448.552 748.408 452.616C751.5 457.683 753.873 463.037 754.761 468.962C755.175 471.722 755.587 474.484 755.942 477.253C756.347 480.415 754.633 482.729 750.987 482.708C726.326 482.564 701.661 482.752 677.003 482.417C672.511 482.356 667.46 482.775 663.524 479.616C660.71 477.357 658.185 474.734 655.567 472.234C650.573 467.465 645.704 462.559 640.597 457.914C635.984 453.718 631.093 449.829 626.378 445.743C620.313 440.485 613.777 435.917 607.079 431.486C599.262 426.314 590.895 422.298 582.197 419.181C575.223 416.683 567.776 415.435 560.479 413.927C550.313 411.826 539.996 412.547 529.757 413.125C524.688 413.412 519.662 414.708 514.655 415.738C510.004 416.695 505.352 417.723 500.799 419.059C497.206 420.114 493.675 421.493 490.272 423.064C483.16 426.346 476.205 429.962 469.925 434.701C461.69 440.915 453.244 446.889 445.387 453.554C434.615 462.692 424.187 472.25 413.849 481.882C406.97 488.292 400.349 494.998 393.907 501.849C389.113 506.947 385.298 512.899 383.466 519.684C382.042 524.959 381.586 530.36 382.828 536.016C384.973 545.783 390.221 553.631 397.051 560.358C407.529 570.676 418.487 580.51 429.336 590.447C433.794 594.53 438.417 598.444 443.112 602.253C447.095 605.484 451.283 608.463 455.392 611.539C460.743 615.545 466.053 619.611 471.475 623.52C480.856 630.285 490.739 636.207 501.298 640.975C513.162 646.332 525.375 650.5 538.196 653.023C549.574 655.262 561.037 656.235 572.533 655.558C579.963 655.12 587.392 653.663 594.674 652.014C601.502 650.467 608.209 648.277 614.836 645.987C622.555 643.32 630.088 640.118 637.791 637.401C640.166 636.563 642.828 636.26 645.367 636.218C652.666 636.097 659.97 636.232 667.272 636.27C675.158 636.31 683.045 636.318 690.931 636.404C710.262 636.615 729.592 636.899 748.923 637.06C751.985 637.086 755.339 639.226 754.644 642.894C753.758 647.569 753.119 652.397 751.415 656.787C748.623 663.975 745.389 671.041 741.718 677.82C738.598 683.582 734.841 689.048 730.924 694.316C726.115 700.784 721.028 707.069 715.714 713.129C712.121 717.227 707.914 720.786 704.01 724.615C696.371 732.104 688.015 738.768 678.97 744.384C668.891 750.642 658.552 756.577 647.908 761.8C639.968 765.696 631.437 768.455 623.032 771.316C614.694 774.154 606.218 776.614 597.731 778.982C594.031 780.015 590.161 780.466 586.351 781.075C579.938 782.1 573.528 783.183 567.084 783.971C561.835 784.614 556.544 785.045 551.259 785.247C539.168 785.709 527.071 786.076 514.973 786.272C509.426 786.362 503.871 785.959 498.088 785.779Z" fill="url(#paint0_linear_1499_538)"/>
<path d="M683.625 221.219C689.296 217.335 695.089 214.482 702.064 214.669C708.039 214.829 711.933 219.272 713.818 223.976C715.495 228.161 716.868 232.473 718.262 236.765C719.209 239.68 720.01 242.646 720.788 245.613C721.755 249.299 722.661 253.002 723.536 256.711C723.987 258.625 724.414 260.554 724.682 262.499C725.466 268.195 726.249 273.893 726.878 279.606C727.958 289.437 729.142 299.263 729.877 309.121C730.763 321.004 731.252 332.917 731.862 344.82C732.189 351.186 732.545 357.556 732.623 363.927C732.66 366.93 732.074 369.94 731.859 372.07C727.383 367.974 722.785 363.49 717.891 359.356C711.249 353.743 704.507 348.23 697.577 342.979C688.423 336.044 678.32 330.602 668.075 325.489C658.552 320.737 648.961 316.108 638.755 312.894C630.703 310.358 622.723 307.592 614.718 304.908C611.009 303.665 610.459 302.318 612.743 299.078C615.018 295.853 617.668 292.896 620.031 289.729C622.578 286.317 624.868 282.709 627.479 279.349C630.657 275.258 633.971 271.265 637.376 267.36C643.251 260.619 648.972 253.711 655.249 247.36C664.247 238.256 672.663 228.476 683.625 221.219Z" fill="#D3D3D3"/>
<path d="M575.718 575.284C575.718 575.284 567.649 587.418 559.898 588.788C522.504 595.396 456.247 545.419 475.253 512.545C496.314 476.119 561.774 469.542 589.187 498.376C608.165 517.924 575.718 575.284 575.718 575.284Z" fill="#A9A7AC"/>
<defs>
<linearGradient id="paint0_linear_1499_538" x1="304.964" y1="176.613" x2="682.884" y2="779.567" gradientUnits="userSpaceOnUse">
<stop stop-color="white"/>
<stop offset="1" stop-color="#9E9E9E"/>
</linearGradient>
</defs>
</svg>
