<svg width="2160" height="4156" viewBox="0 0 2160 4156" fill="none" xmlns="http://www.w3.org/2000/svg">
<path d="M1078.09 2098.78C1068 2097.64 1058.13 2096.69 1048.31 2095.31C1040.87 2094.26 1033.46 2092.92 1026.13 2091.27C1017.76 2089.39 1009.42 2087.29 1001.21 2084.79C992.385 2082.1 983.538 2079.3 975.058 2075.7C965.458 2071.63 956.104 2066.9 946.924 2061.94C938.465 2057.37 930.211 2052.36 922.186 2047.06C916.843 2043.54 911.942 2039.3 907.057 2035.14C900.716 2029.72 894.322 2024.33 888.431 2018.45C880.079 2010.11 872.525 2001.05 865.282 1991.69C855.975 1979.67 848.449 1966.63 842.268 1952.85C838.786 1945.09 836.048 1936.94 833.58 1928.79C830.994 1920.24 828.776 1911.53 827.067 1902.77C825.711 1895.81 825.261 1888.66 824.595 1881.58C823.529 1870.25 824.059 1858.9 824.902 1847.59C825.905 1834.14 827.892 1820.81 831.194 1807.71C833.05 1800.35 834.742 1792.93 836.95 1785.67C839.924 1775.9 844.044 1766.55 849.018 1757.62C853.453 1749.66 853.762 1741.15 853.083 1732.39C852.706 1727.52 852.489 1722.62 852.482 1717.74C852.467 1708.04 852.433 1698.34 852.805 1688.65C853.216 1677.98 853.887 1667.31 854.788 1656.67C855.758 1645.2 856.983 1633.76 858.359 1622.34C859.952 1609.12 861.572 1595.9 863.673 1582.76C865.224 1573.06 867.261 1563.42 869.646 1553.89C871.624 1545.99 874.843 1538.42 879.875 1531.93C884.816 1525.55 891.095 1524.22 898.65 1528.41C905.159 1532.01 911.291 1536.57 916.873 1541.51C928.125 1551.48 939.177 1561.71 949.763 1572.38C958.033 1580.72 965.58 1589.78 973.252 1598.69C979.837 1606.34 986.194 1614.18 992.556 1622.02C996.37 1626.71 1000.07 1631.51 1003.69 1636.35C1006.56 1640.18 1010.51 1640.17 1014.62 1639.78C1015.36 1639.71 1016.08 1639.5 1016.81 1639.44C1028.02 1638.6 1039.23 1637.72 1050.44 1636.97C1056.96 1636.53 1063.5 1636.23 1070.03 1636C1077.48 1635.74 1084.93 1635.42 1092.38 1635.51C1101.32 1635.61 1110.28 1635.89 1119.2 1636.52C1127.85 1637.13 1136.49 1638.1 1145.1 1639.25C1157.2 1640.89 1169.14 1643.46 1180.79 1647.06C1189.55 1649.76 1198.23 1652.83 1206.69 1656.34C1216.12 1660.26 1225.36 1664.65 1234.47 1669.26C1239.59 1671.85 1244.34 1675.21 1249.15 1678.38C1253.95 1681.56 1258.92 1684.58 1263.31 1688.28C1271.66 1695.33 1280 1702.45 1287.69 1710.2C1294.39 1716.95 1300.5 1724.37 1306.3 1731.93C1311.57 1738.8 1316.12 1746.23 1320.89 1753.47C1323.5 1757.45 1325.93 1761.55 1328.41 1765.62C1331.5 1770.68 1333.87 1776.04 1334.76 1781.96C1335.18 1784.72 1335.59 1787.48 1335.94 1790.25C1336.35 1793.42 1334.63 1795.73 1330.99 1795.71C1306.33 1795.56 1281.66 1795.75 1257 1795.42C1252.51 1795.36 1247.46 1795.77 1243.52 1792.62C1240.71 1790.36 1238.18 1787.73 1235.57 1785.23C1230.57 1780.46 1225.7 1775.56 1220.6 1770.91C1215.98 1766.72 1211.09 1762.83 1206.38 1758.74C1200.31 1753.49 1193.78 1748.92 1187.08 1744.49C1179.26 1739.31 1170.89 1735.3 1162.2 1732.18C1155.22 1729.68 1147.78 1728.44 1140.48 1726.93C1130.31 1724.83 1120 1725.55 1109.76 1726.13C1104.69 1726.41 1099.66 1727.71 1094.66 1728.74C1090 1729.69 1085.35 1730.72 1080.8 1732.06C1077.21 1733.11 1073.67 1734.49 1070.27 1736.06C1063.16 1739.35 1056.2 1742.96 1049.92 1747.7C1041.69 1753.92 1033.24 1759.89 1025.39 1766.55C1014.61 1775.69 1004.19 1785.25 993.849 1794.88C986.97 1801.29 980.349 1808 973.907 1814.85C969.113 1819.95 965.298 1825.9 963.466 1832.68C962.042 1837.96 961.586 1843.36 962.828 1849.02C964.973 1858.78 970.221 1866.63 977.051 1873.36C987.529 1883.68 998.487 1893.51 1009.34 1903.45C1013.79 1907.53 1018.42 1911.44 1023.11 1915.25C1027.09 1918.48 1031.28 1921.46 1035.39 1924.54C1040.74 1928.55 1046.05 1932.61 1051.47 1936.52C1060.86 1943.29 1070.74 1949.21 1081.3 1953.97C1093.16 1959.33 1105.38 1963.5 1118.2 1966.02C1129.57 1968.26 1141.04 1969.23 1152.53 1968.56C1159.96 1968.12 1167.39 1966.66 1174.67 1965.01C1181.5 1963.47 1188.21 1961.28 1194.84 1958.99C1202.55 1956.32 1210.09 1953.12 1217.79 1950.4C1220.17 1949.56 1222.83 1949.26 1225.37 1949.22C1232.67 1949.1 1239.97 1949.23 1247.27 1949.27C1255.16 1949.31 1263.05 1949.32 1270.93 1949.4C1290.26 1949.62 1309.59 1949.9 1328.92 1950.06C1331.98 1950.09 1335.34 1952.23 1334.64 1955.89C1333.76 1960.57 1333.12 1965.4 1331.41 1969.79C1328.62 1976.97 1325.39 1984.04 1321.72 1990.82C1318.6 1996.58 1314.84 2002.05 1310.92 2007.32C1306.12 2013.78 1301.03 2020.07 1295.71 2026.13C1292.12 2030.23 1287.91 2033.79 1284.01 2037.61C1276.37 2045.1 1268.01 2051.77 1258.97 2057.38C1248.89 2063.64 1238.55 2069.58 1227.91 2074.8C1219.97 2078.7 1211.44 2081.46 1203.03 2084.32C1194.69 2087.15 1186.22 2089.61 1177.73 2091.98C1174.03 2093.01 1170.16 2093.47 1166.35 2094.07C1159.94 2095.1 1153.53 2096.18 1147.08 2096.97C1141.83 2097.61 1136.54 2098.05 1131.26 2098.25C1119.17 2098.71 1107.07 2099.08 1094.97 2099.27C1089.43 2099.36 1083.87 2098.96 1078.09 2098.78Z" fill="url(#paint0_linear_1499_514)"/>
<path d="M1263.62 1534.22C1269.29 1530.34 1275.08 1527.48 1282.06 1527.67C1288.03 1527.83 1291.93 1532.27 1293.81 1536.98C1295.49 1541.16 1296.86 1545.47 1298.25 1549.77C1299.2 1552.68 1300 1555.65 1300.78 1558.61C1301.75 1562.3 1302.65 1566 1303.53 1569.71C1303.98 1571.63 1304.41 1573.55 1304.67 1575.5C1305.46 1581.2 1306.24 1586.89 1306.87 1592.61C1307.95 1602.44 1309.13 1612.26 1309.87 1622.12C1310.76 1634 1311.24 1645.92 1311.85 1657.82C1312.18 1664.19 1312.54 1670.56 1312.62 1676.93C1312.65 1679.93 1312.07 1682.94 1311.85 1685.07C1307.38 1680.97 1302.78 1676.49 1297.88 1672.36C1291.24 1666.74 1284.5 1661.23 1277.57 1655.98C1268.41 1649.04 1258.31 1643.6 1248.07 1638.49C1238.54 1633.74 1228.95 1629.11 1218.75 1625.89C1210.7 1623.36 1202.72 1620.59 1194.71 1617.91C1191 1616.67 1190.45 1615.32 1192.74 1612.08C1195.01 1608.85 1197.66 1605.9 1200.02 1602.73C1202.57 1599.32 1204.86 1595.71 1207.47 1592.35C1210.65 1588.26 1213.96 1584.27 1217.37 1580.36C1223.24 1573.62 1228.96 1566.71 1235.24 1560.36C1244.24 1551.26 1252.66 1541.48 1263.62 1534.22Z" fill="#D3D3D3"/>
<path d="M1155.73 1888.28C1155.73 1888.28 1147.66 1900.42 1139.91 1901.79C1102.51 1908.4 1036.25 1858.42 1055.26 1825.55C1076.32 1789.12 1141.78 1782.54 1169.19 1811.38C1188.17 1830.92 1155.73 1888.28 1155.73 1888.28Z" fill="#A9A7AC"/>
<path d="M713.576 2484.12C687.293 2484.12 663.571 2478.49 642.408 2467.22C621.587 2455.96 605.032 2439.41 592.744 2417.56C580.797 2395.37 574.824 2367.9 574.824 2335.13C574.824 2302.02 580.797 2274.37 592.744 2252.18C604.691 2230 621.245 2213.44 642.408 2202.52C663.912 2191.26 688.317 2185.62 715.624 2185.62C738.152 2185.62 758.12 2189.72 775.528 2197.91C792.936 2206.1 807.443 2218.05 819.048 2233.75C830.995 2249.11 839.016 2268.06 843.112 2290.58H819.048C815.635 2272.49 808.979 2257.3 799.08 2245.02C789.523 2232.39 777.576 2223 763.24 2216.86C749.245 2210.37 733.373 2207.13 715.624 2207.13C679.443 2207.13 650.771 2218.05 629.608 2239.9C608.787 2261.74 598.376 2293.14 598.376 2334.1C598.376 2376.43 608.616 2408.51 629.096 2430.36C649.917 2451.86 678.077 2462.62 713.576 2462.62C733.032 2462.62 750.269 2459.37 765.288 2452.89C780.307 2446.4 792.424 2437.02 801.64 2424.73C811.197 2412.44 817.512 2397.42 820.584 2379.67H845.672C841.576 2401.86 833.725 2420.8 822.12 2436.5C810.515 2451.86 795.496 2463.64 777.064 2471.83C758.973 2480.02 737.811 2484.12 713.576 2484.12ZM891.636 2479V2190.74H915.188V2479H891.636ZM1054.12 2484.12C1032.61 2484.12 1014.52 2479.68 999.844 2470.81C985.508 2461.59 974.756 2448.96 967.588 2432.92C960.42 2416.88 956.836 2398.62 956.836 2378.14C956.836 2357.31 960.42 2338.88 967.588 2322.84C974.756 2306.46 985.508 2293.83 999.844 2284.95C1014.52 2275.74 1032.61 2271.13 1054.12 2271.13C1085.52 2271.13 1109.41 2281.03 1125.8 2300.82C1142.52 2320.28 1150.88 2346.05 1150.88 2378.14C1150.88 2397.93 1147.47 2416.02 1140.64 2432.41C1133.82 2448.45 1123.24 2461.08 1108.9 2470.3C1094.56 2479.51 1076.3 2484.12 1054.12 2484.12ZM1054.12 2463.13C1073.23 2463.13 1088.08 2458.86 1098.66 2450.33C1109.24 2441.79 1116.58 2431.04 1120.68 2418.07C1125.11 2404.76 1127.33 2391.28 1127.33 2377.62C1127.33 2363.63 1125.11 2350.15 1120.68 2337.18C1116.58 2323.86 1109.24 2312.94 1098.66 2304.41C1088.08 2295.87 1073.23 2291.61 1054.12 2291.61C1035.34 2291.61 1020.49 2295.87 1009.57 2304.41C998.649 2312.94 990.969 2323.86 986.532 2337.18C982.436 2350.15 980.388 2363.63 980.388 2377.62C980.388 2391.28 982.436 2404.76 986.532 2418.07C990.969 2431.04 998.649 2441.79 1009.57 2450.33C1020.49 2458.86 1035.34 2463.13 1054.12 2463.13ZM1266.7 2483.61C1247.58 2483.61 1231.71 2478.83 1219.08 2469.27C1206.45 2459.71 1197.06 2446.91 1190.92 2430.87C1184.78 2414.49 1181.7 2396.4 1181.7 2376.6C1181.7 2355.78 1184.78 2337.35 1190.92 2321.3C1197.41 2305.26 1206.96 2292.63 1219.59 2283.42C1232.56 2273.86 1248.26 2269.08 1266.7 2269.08C1276.94 2269.08 1285.98 2270.45 1293.83 2273.18C1301.68 2275.91 1308.68 2279.49 1314.82 2283.93C1320.97 2288.37 1326.09 2293.49 1330.18 2299.29C1334.62 2304.75 1338.03 2310.72 1340.42 2317.21H1340.94V2271.13H1365V2479H1345.54L1341.45 2435.99H1340.42C1337.69 2442.14 1334.11 2448.11 1329.67 2453.91C1325.58 2459.37 1320.46 2464.49 1314.31 2469.27C1308.17 2473.71 1301.17 2477.12 1293.32 2479.51C1285.47 2482.24 1276.59 2483.61 1266.7 2483.61ZM1275.4 2462.1C1290.08 2462.1 1302.19 2458.69 1311.75 2451.86C1321.65 2445.04 1328.99 2435.31 1333.77 2422.68C1338.55 2409.71 1340.94 2394.52 1340.94 2377.11C1340.94 2358 1338.38 2342.3 1333.26 2330.01C1328.14 2317.38 1320.63 2307.82 1310.73 2301.34C1301.17 2294.85 1289.39 2291.61 1275.4 2291.61C1259.36 2291.61 1246.05 2295.36 1235.46 2302.87C1225.22 2310.38 1217.54 2320.45 1212.42 2333.08C1207.65 2345.71 1205.26 2360.22 1205.26 2376.6C1205.26 2393.33 1207.82 2408.17 1212.94 2421.14C1218.06 2434.11 1225.74 2444.18 1235.98 2451.35C1246.56 2458.52 1259.7 2462.1 1275.4 2462.1ZM1434.68 2479.51H1411.12V2190.74H1434.68V2479.51ZM1491.51 2354.58L1592.88 2479.51H1563.7L1474.61 2370.46L1491.51 2354.58ZM1431.09 2425.75V2396.57L1560.12 2271.13H1591.35L1431.09 2425.75Z" fill="white"/>
<defs>
<linearGradient id="paint0_linear_1499_514" x1="884.964" y1="1489.61" x2="1262.88" y2="2092.57" gradientUnits="userSpaceOnUse">
<stop stop-color="white"/>
<stop offset="1" stop-color="#9E9E9E"/>
</linearGradient>
</defs>
</svg>
